<mxfile host="app.diagrams.net" modified="2024-01-13T00:21:17.925Z" agent="Mozilla/5.0 (Windows NT 10.0; Win64; x64) AppleWebKit/537.36 (KHTML, like Gecko) Chrome/120.0.0.0 Safari/537.36 Edg/120.0.0.0" etag="NnyBSbldsdONYlrFwQSg" version="22.1.17" type="github">
  <diagram name="Page-1" id="GCEoD-houyW2Ff1eKBKT">
    <mxGraphModel dx="836" dy="455" grid="1" gridSize="10" guides="1" tooltips="1" connect="1" arrows="1" fold="1" page="1" pageScale="1" pageWidth="827" pageHeight="1169" math="0" shadow="0">
      <root>
        <mxCell id="0" />
        <mxCell id="1" parent="0" />
        <mxCell id="TInwAAiQI1-0jNDrSNCf-35" value="" style="group;fontSize=15;" vertex="1" connectable="0" parent="1">
          <mxGeometry x="40" y="250" width="730" height="669.9966666666667" as="geometry" />
        </mxCell>
        <mxCell id="TInwAAiQI1-0jNDrSNCf-2" value="" style="rounded=0;whiteSpace=wrap;html=1;container=0;fontSize=15;" vertex="1" parent="TInwAAiQI1-0jNDrSNCf-35">
          <mxGeometry x="160" width="470" height="640" as="geometry" />
        </mxCell>
        <mxCell id="TInwAAiQI1-0jNDrSNCf-3" value="User" style="shape=umlActor;verticalLabelPosition=bottom;verticalAlign=top;html=1;outlineConnect=0;container=0;fontSize=15;" vertex="1" parent="TInwAAiQI1-0jNDrSNCf-35">
          <mxGeometry y="13.333333333333329" width="20" height="40" as="geometry" />
        </mxCell>
        <mxCell id="TInwAAiQI1-0jNDrSNCf-4" value="Manager" style="shape=umlActor;verticalLabelPosition=bottom;verticalAlign=top;html=1;outlineConnect=0;container=0;fontSize=15;" vertex="1" parent="TInwAAiQI1-0jNDrSNCf-35">
          <mxGeometry x="710" y="629.9966666666667" width="20" height="40" as="geometry" />
        </mxCell>
        <mxCell id="TInwAAiQI1-0jNDrSNCf-5" value="Login" style="ellipse;whiteSpace=wrap;html=1;container=0;fontSize=15;" vertex="1" parent="TInwAAiQI1-0jNDrSNCf-35">
          <mxGeometry x="213.33333333333331" y="33.33333333333333" width="140" height="53.33333333333333" as="geometry" />
        </mxCell>
        <mxCell id="TInwAAiQI1-0jNDrSNCf-25" style="edgeStyle=entityRelationEdgeStyle;rounded=0;orthogonalLoop=1;jettySize=auto;html=1;entryX=0;entryY=0.5;entryDx=0;entryDy=0;fontSize=15;" edge="1" parent="TInwAAiQI1-0jNDrSNCf-35" source="TInwAAiQI1-0jNDrSNCf-3" target="TInwAAiQI1-0jNDrSNCf-5">
          <mxGeometry relative="1" as="geometry" />
        </mxCell>
        <mxCell id="TInwAAiQI1-0jNDrSNCf-6" value="Register" style="ellipse;whiteSpace=wrap;html=1;container=0;fontSize=15;" vertex="1" parent="TInwAAiQI1-0jNDrSNCf-35">
          <mxGeometry x="433.3333333333333" y="26.666666666666657" width="140" height="53.33333333333333" as="geometry" />
        </mxCell>
        <mxCell id="TInwAAiQI1-0jNDrSNCf-9" style="edgeStyle=orthogonalEdgeStyle;rounded=0;orthogonalLoop=1;jettySize=auto;html=1;exitX=1;exitY=0.5;exitDx=0;exitDy=0;dashed=1;endArrow=block;endFill=0;fontSize=15;" edge="1" parent="TInwAAiQI1-0jNDrSNCf-35" source="TInwAAiQI1-0jNDrSNCf-5" target="TInwAAiQI1-0jNDrSNCf-6">
          <mxGeometry relative="1" as="geometry" />
        </mxCell>
        <mxCell id="TInwAAiQI1-0jNDrSNCf-10" value="&amp;lt;&amp;lt; Extends&amp;gt;&amp;gt;" style="edgeLabel;html=1;align=center;verticalAlign=middle;resizable=0;points=[];container=0;fontSize=12;" vertex="1" connectable="0" parent="TInwAAiQI1-0jNDrSNCf-9">
          <mxGeometry x="-0.1795" y="-2" relative="1" as="geometry">
            <mxPoint y="-22" as="offset" />
          </mxGeometry>
        </mxCell>
        <mxCell id="TInwAAiQI1-0jNDrSNCf-17" value="&amp;lt;&amp;lt; Include&amp;gt;&amp;gt;" style="edgeLabel;html=1;align=center;verticalAlign=middle;resizable=0;points=[];container=0;fontSize=12;" vertex="1" connectable="0" parent="TInwAAiQI1-0jNDrSNCf-9">
          <mxGeometry x="-0.1795" y="-2" relative="1" as="geometry">
            <mxPoint x="17" y="118" as="offset" />
          </mxGeometry>
        </mxCell>
        <mxCell id="TInwAAiQI1-0jNDrSNCf-11" value="Filter the Products" style="ellipse;whiteSpace=wrap;html=1;container=0;fontSize=15;" vertex="1" parent="TInwAAiQI1-0jNDrSNCf-35">
          <mxGeometry x="213.33333333333331" y="133.33333333333331" width="140" height="53.33333333333333" as="geometry" />
        </mxCell>
        <mxCell id="TInwAAiQI1-0jNDrSNCf-26" style="edgeStyle=entityRelationEdgeStyle;rounded=0;orthogonalLoop=1;jettySize=auto;html=1;entryX=0;entryY=0.5;entryDx=0;entryDy=0;fontSize=15;" edge="1" parent="TInwAAiQI1-0jNDrSNCf-35" source="TInwAAiQI1-0jNDrSNCf-3" target="TInwAAiQI1-0jNDrSNCf-11">
          <mxGeometry relative="1" as="geometry" />
        </mxCell>
        <mxCell id="TInwAAiQI1-0jNDrSNCf-16" style="edgeStyle=orthogonalEdgeStyle;rounded=0;orthogonalLoop=1;jettySize=auto;html=1;endArrow=block;endFill=0;dashed=1;fontSize=15;" edge="1" parent="TInwAAiQI1-0jNDrSNCf-35" source="TInwAAiQI1-0jNDrSNCf-12" target="TInwAAiQI1-0jNDrSNCf-11">
          <mxGeometry relative="1" as="geometry" />
        </mxCell>
        <mxCell id="TInwAAiQI1-0jNDrSNCf-12" value="Sort the products" style="ellipse;whiteSpace=wrap;html=1;container=0;fontSize=15;" vertex="1" parent="TInwAAiQI1-0jNDrSNCf-35">
          <mxGeometry x="440" y="133.33333333333331" width="140" height="53.33333333333333" as="geometry" />
        </mxCell>
        <mxCell id="TInwAAiQI1-0jNDrSNCf-18" value="Add Products to the Cart" style="ellipse;whiteSpace=wrap;html=1;container=0;fontSize=15;" vertex="1" parent="TInwAAiQI1-0jNDrSNCf-35">
          <mxGeometry x="213.33333333333331" y="226.66666666666663" width="140" height="53.33333333333333" as="geometry" />
        </mxCell>
        <mxCell id="TInwAAiQI1-0jNDrSNCf-27" style="edgeStyle=entityRelationEdgeStyle;rounded=0;orthogonalLoop=1;jettySize=auto;html=1;entryX=0;entryY=0.5;entryDx=0;entryDy=0;fontSize=15;" edge="1" parent="TInwAAiQI1-0jNDrSNCf-35" source="TInwAAiQI1-0jNDrSNCf-3" target="TInwAAiQI1-0jNDrSNCf-18">
          <mxGeometry relative="1" as="geometry" />
        </mxCell>
        <mxCell id="TInwAAiQI1-0jNDrSNCf-19" value="View the Cart" style="ellipse;whiteSpace=wrap;html=1;container=0;fontSize=15;" vertex="1" parent="TInwAAiQI1-0jNDrSNCf-35">
          <mxGeometry x="213.33333333333331" y="320" width="140" height="53.33333333333333" as="geometry" />
        </mxCell>
        <mxCell id="TInwAAiQI1-0jNDrSNCf-28" style="edgeStyle=entityRelationEdgeStyle;rounded=0;orthogonalLoop=1;jettySize=auto;html=1;entryX=0;entryY=0.5;entryDx=0;entryDy=0;fontSize=15;" edge="1" parent="TInwAAiQI1-0jNDrSNCf-35" source="TInwAAiQI1-0jNDrSNCf-3" target="TInwAAiQI1-0jNDrSNCf-19">
          <mxGeometry relative="1" as="geometry" />
        </mxCell>
        <mxCell id="TInwAAiQI1-0jNDrSNCf-20" value="Checkout" style="ellipse;whiteSpace=wrap;html=1;container=0;fontSize=15;" vertex="1" parent="TInwAAiQI1-0jNDrSNCf-35">
          <mxGeometry x="213.33333333333331" y="400" width="140" height="53.33333333333333" as="geometry" />
        </mxCell>
        <mxCell id="TInwAAiQI1-0jNDrSNCf-29" style="edgeStyle=entityRelationEdgeStyle;rounded=0;orthogonalLoop=1;jettySize=auto;html=1;entryX=0;entryY=0.5;entryDx=0;entryDy=0;fontSize=15;" edge="1" parent="TInwAAiQI1-0jNDrSNCf-35" source="TInwAAiQI1-0jNDrSNCf-3" target="TInwAAiQI1-0jNDrSNCf-20">
          <mxGeometry relative="1" as="geometry" />
        </mxCell>
        <mxCell id="TInwAAiQI1-0jNDrSNCf-21" value="Add Product" style="ellipse;whiteSpace=wrap;html=1;container=0;fontSize=15;" vertex="1" parent="TInwAAiQI1-0jNDrSNCf-35">
          <mxGeometry x="429.9966666666666" y="546.67" width="140" height="53.33333333333333" as="geometry" />
        </mxCell>
        <mxCell id="TInwAAiQI1-0jNDrSNCf-30" style="edgeStyle=entityRelationEdgeStyle;rounded=0;orthogonalLoop=1;jettySize=auto;html=1;entryX=1;entryY=0.5;entryDx=0;entryDy=0;fontSize=15;" edge="1" parent="TInwAAiQI1-0jNDrSNCf-35" source="TInwAAiQI1-0jNDrSNCf-4" target="TInwAAiQI1-0jNDrSNCf-21">
          <mxGeometry relative="1" as="geometry" />
        </mxCell>
        <mxCell id="TInwAAiQI1-0jNDrSNCf-22" value="Delete Product" style="ellipse;whiteSpace=wrap;html=1;container=0;fontSize=15;" vertex="1" parent="TInwAAiQI1-0jNDrSNCf-35">
          <mxGeometry x="429.9966666666666" y="440.00333333333333" width="140" height="53.33333333333333" as="geometry" />
        </mxCell>
        <mxCell id="TInwAAiQI1-0jNDrSNCf-31" style="edgeStyle=entityRelationEdgeStyle;rounded=0;orthogonalLoop=1;jettySize=auto;html=1;entryX=1;entryY=0.5;entryDx=0;entryDy=0;fontSize=15;" edge="1" parent="TInwAAiQI1-0jNDrSNCf-35" source="TInwAAiQI1-0jNDrSNCf-4" target="TInwAAiQI1-0jNDrSNCf-22">
          <mxGeometry relative="1" as="geometry" />
        </mxCell>
        <mxCell id="TInwAAiQI1-0jNDrSNCf-23" value="Print the product list" style="ellipse;whiteSpace=wrap;html=1;container=0;fontSize=15;" vertex="1" parent="TInwAAiQI1-0jNDrSNCf-35">
          <mxGeometry x="429.9966666666666" y="333.33666666666664" width="140" height="53.33333333333333" as="geometry" />
        </mxCell>
        <mxCell id="TInwAAiQI1-0jNDrSNCf-32" style="edgeStyle=entityRelationEdgeStyle;rounded=0;orthogonalLoop=1;jettySize=auto;html=1;entryX=1;entryY=0.5;entryDx=0;entryDy=0;fontSize=15;" edge="1" parent="TInwAAiQI1-0jNDrSNCf-35" source="TInwAAiQI1-0jNDrSNCf-4" target="TInwAAiQI1-0jNDrSNCf-23">
          <mxGeometry relative="1" as="geometry" />
        </mxCell>
        <mxCell id="TInwAAiQI1-0jNDrSNCf-24" value="Save the product list to Text File" style="ellipse;whiteSpace=wrap;html=1;container=0;fontSize=15;" vertex="1" parent="TInwAAiQI1-0jNDrSNCf-35">
          <mxGeometry x="429.9966666666666" y="240.00333333333333" width="140" height="53.33333333333333" as="geometry" />
        </mxCell>
        <mxCell id="TInwAAiQI1-0jNDrSNCf-33" style="edgeStyle=entityRelationEdgeStyle;rounded=0;orthogonalLoop=1;jettySize=auto;html=1;entryX=1;entryY=0.5;entryDx=0;entryDy=0;fontSize=15;" edge="1" parent="TInwAAiQI1-0jNDrSNCf-35" source="TInwAAiQI1-0jNDrSNCf-4" target="TInwAAiQI1-0jNDrSNCf-24">
          <mxGeometry relative="1" as="geometry" />
        </mxCell>
      </root>
    </mxGraphModel>
  </diagram>
</mxfile>
